<?xml version="1.0" encoding="utf-8"?>
<!-- Generator: Adobe Illustrator 23.1.0, SVG Export Plug-In . SVG Version: 6.00 Build 0)  -->
<svg version="1.1" id="Слой_1" xmlns="http://www.w3.org/2000/svg" xmlns:xlink="http://www.w3.org/1999/xlink" x="0px" y="0px"
	 viewBox="0 0 720 890.13" style="enable-background:new 0 0 720 890.13;" xml:space="preserve">
<path d="M310.95,61.72c-11.18,3.29-20.76,10.53-25.53,21.48c-0.25,0.57-0.51,1.19-0.78,1.82c-2.42-5.34-5.75-10.22-10.44-13.84
	c-6.34-4.89-15.09-6.65-22.72-3.89c-21.67,7.84-9.16,35.86-1.09,49.39c3.1,5.2,7.04,10.17,10.73,14.95c1.74,2.25,3.6,4.41,5.52,6.51
	c1.66,1.82,3.28,3.59,4.65,5.62c0.58,0.86,1.18,1.74,2,2.38c1.41,1.09,3.23,1.04,4.5-0.22c10.53-10.4,21.06-20.8,31.58-31.2
	c5.34-5.28,10.72-10.53,16.03-15.84c4.06-4.07,7.96-8.41,10.1-13.69c3.83-9.46,0.59-20.92-10.51-23.91
	C320.37,60.06,315.5,60.39,310.95,61.72z M330.47,77.65c-0.25,6.59-4.84,11.83-9.39,16.42c-5.06,5.11-10.23,10.12-15.35,15.18
	c-7.8,7.7-15.6,15.41-23.4,23.11c-1.06,1.05-4.63,5.17-6.23,5.01c-0.37-0.04-0.72-0.22-1.04-0.42c-3.6-2.18-6.52-6.71-9.19-9.95
	c-3.11-3.77-5.87-7.82-8.4-12.01c-2.75-4.56-5.8-9.93-7.72-14.89c-1.97-5.08-3.07-10.86-2.47-16.39c1.07-9.81,10-13.37,18.31-10.29
	c11.02,4.09,14.67,15.98,15.18,26.63c0.26,5.46,5.14,5.04,7.43,0.89c1.56-2.83,1.29-6.18,2.11-9.18
	c2.19-8.02,6.85-14.99,13.74-19.72c4.41-3.02,9.73-5.3,15.26-5.2C326.02,66.97,330.72,71.1,330.47,77.65z"/>
<path d="M713.82,214.51c-4.3-5.93-10.06-10.05-16.52-12.37c-0.08-0.03-0.12-9.16-0.21-9.98c-0.43-3.91-1.22-7.82-2.56-11.53
	c-8.77-24.26-35.82-16.91-53.01-7.95c-7.11,3.71-14.11,7.91-20.59,12.6c-0.43,0.31-2.59,1.39-2.59,1.91
	c0.48-1.32,0.34-3.16,0.52-4.57c0.2-1.63,0.39-3.26,0.5-4.9c0.26-3.8,0.42-7.6,0.49-11.41c0.12-5.92-0.13-11.84-0.75-17.73
	c-0.15-1.39-0.47-2.67-0.95-3.85c-0.48-1.17-1.64-2-3.49-2.48c-0.92-0.19-1.88-0.32-2.87-0.4c-1-0.08-2.02-0.1-3.07-0.07
	c-0.79,0.03-1.73,0.51-2.35,1.37c-0.55,0.77-0.9,1.72-1.15,2.54c-0.26,0.81-0.7,1.61-1.35,2.38c-6.2,8.6-12.56,17.04-19.09,25.31
	c-6.54,8.28-13.7,16.3-21.49,24.09c-1.94,1.92-4.13,3.64-6.55,5.15c-2.41,1.52-4.73,3.09-6.94,4.7c-1.43,1.04-2.43,0.78-3.17-0.32
	c-0.53-0.8-1.31-1.65-1.91-2.49c-0.6-0.83-1.11-1.72-1.52-2.67c-1.91-4.42-2.99-8.93-3.27-13.55c-0.26-4.61-0.06-9.33,0.68-14.08
	c0.7-4.43,1.68-8.83,2.87-13.15c1.18-4.31,2.86-8.56,5.04-12.77c0.26-0.44,0.25-0.92-0.02-1.45c-1.6-1.86-3.66-2.69-6.16-2.51
	c-2.51,0.19-4.46,1.29-5.88,3.3c-3.48,5.25-6.11,10.61-7.87,16.09c-1.31,4.06-2.31,8.24-2.95,12.49c-2.04,1.47-3.91,2.82-6.58,4.75
	c-1.43,1.07-2.15,1.6-3.59,2.67c-0.14-0.62-0.18-1.14-0.12-1.55c0.06-0.4,0.02-0.75-0.11-1.07c-0.57-1.71-1.06-3.46-1.49-5.26
	c-0.43-1.79-1.07-3.39-1.88-4.75c-1.93-3.35-4.79-5.32-8.54-5.89c-3.77-0.57-7.55,0.4-11.24,2.5c-3.74,2.14-7.31,4.7-10.34,7.84
	c-3.04,3.14-5.94,6.51-8.7,10.11c-5.27,7.02-9.68,14.44-13.25,22.27c-3.57,7.83-6.84,15.95-9.8,24.37
	c-0.52,0.85-0.85,1.76-0.96,2.73c-0.28-0.13-0.54-0.19-0.81-0.16c-0.02-1.34-0.03-2.01-0.05-3.34c-0.11-7.17,0.1-14.24,0.59-21.22
	c0.53-7.39,1.5-14.68,2.58-21.95c0.08-0.56,0.17-1.13,0.46-1.62c0.27-0.44,0.69-0.77,1.09-1.09c6.76-5.28,13.28-11.26,19.65-17.08
	c9.46-8.63,16.64-20.25,23.11-31.17c5.62-9.49,10.92-19.29,15.86-29.41c2.86-5.81,5.46-11.67,7.79-17.59
	c2.34-5.92,3.87-12.37,4.96-18.8c0.54-3.17,0.81-6.48,0.56-9.73c-0.24-3.25-1-6.42-2.25-9.52c-1.26-3.09-3.04-5.78-5.36-8.08
	c-2.32-2.29-4.92-3.92-7.81-4.88c-2.91-0.97-5.99-1.11-9.26-0.45c-3.28,0.67-6.59,2.49-9.89,5.26c-2.99,2.51-5.75,5.2-8.12,8.12
	c-2.37,2.92-4.68,6.08-6.9,9.46c-5.12,8.12-9.45,16.68-13,25.71c-3.56,9.02-6.67,18.29-9.35,27.79
	c-3.32,11.79-6.06,23.66-8.23,35.59c-1.91,10.49-3.4,21.07-4.65,31.66c-2.63,1.79-5.21,3.65-7.74,5.57
	c-0.8,0.61-5.98,3.71-6.06,4.53c0.65-6.65-5.03-12.86-11.54-13.5c-3.77-0.37-7.54,0.61-11.2,2.6c-3.71,2.02-7.25,4.41-10.24,7.28
	c-3,2.88-5.86,5.96-8.57,9.24c-5.18,6.38-9.49,13.1-12.97,20.15c-3.47,7.05-6.64,14.34-9.49,21.89c-0.51,0.77-0.83,1.58-0.93,2.45
	c-0.28-0.11-0.54-0.15-0.81-0.12c-0.04-1.19-0.05-1.78-0.09-2.97c-0.19-6.36-0.08-12.64,0.33-18.86c0.44-6.67,0.94-13.33,1.78-19.95
	c0.03-0.25,0.07-0.52,0.21-0.73c0.15-0.22,0.4-0.34,0.64-0.46c5.55-2.82,10.87-6.89,15.51-10.96c3.33-2.92,6.48-6.1,9.47-9.55
	c6.74-7.69,12.87-15.84,18.37-24.44c5.5-8.61,10.67-17.49,15.48-26.66c2.79-5.26,5.31-10.56,7.56-15.9
	c2.26-5.34,3.71-11.13,4.72-16.87c0.5-2.84,0.73-5.78,0.43-8.66c-0.28-2.87-1.08-5.66-2.37-8.37c-1.3-2.7-3.11-5.02-5.46-6.98
	c-2.34-1.94-4.96-3.3-7.87-4.05c-2.92-0.76-6-0.78-9.26-0.08c-3.27,0.71-6.55,2.43-9.82,5c-2.96,2.32-5.68,4.8-8.01,7.47
	c-2.33,2.67-4.6,5.54-6.78,8.61c-5.02,7.36-9.23,15.09-12.67,23.2c-3.44,8.11-6.44,16.42-9,24.92c-3.17,10.56-5.76,21.16-7.78,31.81
	c-2.02,10.64-3.58,21.38-4.75,32.11c-0.32,2.93-0.57,5.86-0.79,8.77c-0.5,1.37-1.03,2.74-1.52,4.1c-1.09,3.05-2.29,6.12-3.59,9.19
	c-3.36,8.5-6.76,16.96-10.18,25.39c-3.43,8.44-6.97,16.91-10.6,25.43c-2.2,5.3-4.54,10.65-7.01,16.04
	c-2.46,5.39-4.86,10.74-7.21,16.05c-0.26,0.29-0.49,0.62-0.68,0.97c-0.19,0.35-0.49,0.75-0.89,1.19c-0.42-0.9-0.62-1.56-0.63-1.96
	c-0.61-4.38-1.24-8.72-1.9-13.02c-0.66-4.31-1.17-8.66-1.29-12.88c-0.13-4.23,0.07-8.6,0.41-12.93c0.34-4.32,0.66-8.68,1.02-12.98
	c0.86-10.24,2.21-20.47,3.87-30.56c1.66-10.09,3.55-20.26,5.68-30.52c2.7-13.46,4.05-20.18,6.75-33.64c0.5-2.59,0.54-4.3,0.12-5.15
	c-2.27-4.53-11.03-2.92-12.66,1.24c-0.65,1.67-1.23,3.36-1.74,5.08c-0.51,1.73-1.23,3.37-2.14,4.92
	c-6.92,12.43-14.02,24.64-21.29,36.6c-7.27,11.97-15.04,23.75-23.32,35.31c-1.32,1.86-2.73,3.62-4.25,5.29
	c-1.53,1.67-3.07,3.37-4.65,5.11c-0.8,0.87-1.32,1.25-1.6,1.13c-0.27-0.11-0.59-0.79-0.84-1.94c-0.16-0.77-0.25-1.59-0.33-2.39
	c-0.09-0.8-0.12-1.6-0.13-2.4c-0.4-8.83,0-17.55,1.22-26.18c1.22-8.62,2.63-17.23,4.25-25.82c0.62-3.27,1.34-6.52,2.17-9.74
	c0.83-3.23,1.45-6.55,2.17-9.55c1.14-4.77-8.74-7.2-10.9-2.32c-1.05,2.37-2.08,4.79-3.11,7.29c-1.04,2.5-1.95,4.99-2.71,7.47
	c-2.05,6.88-3.69,13.75-4.94,20.63c-0.62,3.49-1.15,7-1.6,10.53c-1.28,2.1-2.56,4.21-3.88,6.31c-1.77,2.83-3.38,5.7-4.81,8.63
	c-2.61,5.03-5.11,10.09-7.52,15.16c-2.41,5.09-5.01,10.1-7.53,14.96c-1.85,3.56-3.89,7.13-6.19,10.51c-2.3,3.39-4.56,6.7-6.8,9.94
	c-1.05,1.55-1.81,2.27-2.28,2.17c-0.47-0.1-1.05-0.87-1.74-2.3c-0.58-1.33-0.87-2-1.46-3.33c-1.27-3.8-2.2-7.7-2.79-11.69
	c-0.59-3.99-0.93-7.99-0.98-12.01c-0.07-5.1-0.12-10.13-0.11-15.1c-0.01-4.96,0.24-10.04,0.68-15.15
	c0.59-6.85,1.34-13.71,2.31-20.49c0.97-6.78,1.69-13.77,2.51-20.51c0.31-2.53,1.75-3.94,4.16-4.11c0.4-0.03,0.81-0.09,1.21-0.18
	c0.4-0.09,0.8-0.16,1.2-0.19c1.48-0.24,2.84-0.27,4.13-0.09c1.28,0.18,2.33,1.18,3.17,3c0.28,0.65,0.96,1.07,2.03,1.26
	c1.08,0.19,2.12,0.3,3.03,0.38c0.65,0.06,0.9-0.54,0.67-1.86c-0.22-1.33-0.67-2.5-1.35-3.53c-0.25-0.22-0.37-0.33-0.62-0.56
	c-1.63-1.76-3.52-2.9-5.68-3.42c-2.16-0.52-4.57-0.95-6.86-0.92c-1.9,0.03-2.76-0.81-2.25-2.86c3.2-12.06,4.8-18.1,8-30.17
	c4.9-18.37,11.69-36.72,15.01-55.42c0.02-0.1,0.04-0.19,0.05-0.29c1.99-10.69,2.39-20.65,0.86-30.05
	c16.96-5.7,33.51-12.59,50.31-18.74c17.13-6.27,34.94-12.47,53.33-13.25c10.89-0.47,29.54,0.25,33.81,13.01
	c1.84,5.5-0.87,12.29,2.57,16.95c1.48,2,3.99,3.2,6.47,3.09c10.13-0.45,8.36-12.39,5.19-18.64c-3.82-7.55-11.34-12.77-18.96-15.97
	c-12.96-5.44-27.25-5.62-40.97-3.5c-31.99,4.94-61.65,20.16-92.03,30.55c-0.34,0.12-0.7,0.23-1.04,0.35
	c-2.63-9.99-7.59-19.39-15.46-28.39c-8.18-9.34-19.61-15.35-31.91-16.94c-13.03-1.68-28.75,0.54-38.97,9.41
	c-8.46,7.34-10.9,18.71-6.05,28.83c6.46,13.49,21.81,21.09,36.05,22.83c15.43,1.89,31.56-1.53,46.61-6.04
	c-0.55,28.42-12.69,56.14-20.83,82.93c-3.37,11.1-6.31,22.37-8.78,33.81c-0.38,1.37-1.23,2.3-2.55,2.78
	c-8.94,3.31-13.41,4.95-22.35,8.2c-1.2,0.47-1.9,0.64-2.11,0.52c-0.2-0.12-0.24-0.85-0.13-2.2c1.09-13.75,1.63-20.63,2.71-34.38
	c0.55-7.68,0.55-15.26-0.03-22.75c-0.59-7.48-1.99-14.93-4.26-22.3c-2.23-7.25-5.7-13.17-10.32-17.76
	c-4.63-4.59-10.88-7.74-18.26-9.77c-5.06-1.39-10.62-1.27-16.5,0.7c-9.07,3.04-16.77,8.59-23.09,16.68
	c-0.79,0.97-1.48,1.99-2.06,3.08c-0.05,0.1-0.11,0.2-0.16,0.3c-5.51-3.34-11.54-5.77-18-6.93C33.97,82.9,8.3,110.36,1.77,138.21
	c-3.69,15.73-1.76,31.68,7.09,45.31c4.24,6.53,9.66,12.51,16.28,16.68c4.5,2.83,10.6,5.84,16.05,5.6c3.6-0.16,5.92-2.73,6.2-6.3
	c0.3-3.84-3.95-5.14-7.18-5.48c-4.14-0.43-8.16-0.37-12.12-1.9c-4.92-1.9-9.12-5.2-12.2-9.47c-7.04-9.75-10.34-20.79-9.56-32.82
	C7.94,124.95,26.6,96.42,53.35,94.1c9.35-0.81,18.4,1.98,26.4,6.9c-6.75,13.17-12.19,27.64-11.2,42.69
	c0.92,13.98,9.03,27.72,22.99,31.96c8.97,2.73,19.21,0.46,23.15-8.7c3.65-8.5,1.92-18.92-0.32-27.56
	c-3.57-13.79-11.49-27.37-22.42-37.16c0.53-0.96,1.06-1.91,1.58-2.86c3.84-4.15,8.01-7.68,12.53-10.6c4.51-2.92,9.6-4.83,15.2-5.76
	c4.28-0.71,7.71-0.49,10.27,0.73c2.57,1.22,4.75,3.73,6.55,7.52c0.83,1.84,1.53,3.75,2.1,5.73c0.57,1.98,0.99,3.98,1.29,5.97
	c1.15,5.58,1.85,11.18,2.06,16.81c0.21,5.62-0.07,11.43-0.56,17.14c-0.67,7.93-1.27,16.21-2.15,24.38
	c-0.88,8.17-1.6,16.37-2.36,24.38c-0.21,2.28-0.78,4.3-1.63,6.02c-0.85,1.72-2.47,2.98-4.87,3.76c-0.14,0.01-0.47,0.16-1,0.45
	c-6.78,4.08-13.09,8.55-18.92,13.41c-5.83,4.86-11.45,10.18-16.87,15.81c-6.68,6.93-12.84,14.21-18.29,21.85
	c-5.46,7.64-9.87,15.91-13.22,24.82c-1.81,4.73-3.18,9.47-4.11,14.25c-0.94,4.77-1.06,9.74-0.29,14.8c0.57,3.72,1.85,6.88,3.76,9.39
	c1.91,2.52,4.82,4.28,8.73,5.27c8.61,2.1,17.19,1.26,25.71-2.51c10.53-4.64,18.59-12.43,24.21-23.27c2.6-5.21,5.17-10.53,7.71-15.95
	c2.53-5.42,4.97-10.94,7.3-16.56c3.89-9.45,6.97-19.1,9.23-28.96c2.27-9.85,4.34-19.79,6.2-29.83c0.37-2.17,1.42-3.63,3.16-4.41
	c3.46-1.4,6.83-2.84,10.1-4.31c3.26-1.47,6.55-2.97,9.87-4.53c0.66-0.31,1.29-0.52,1.88-0.63c0.6-0.1,1.23-0.24,1.88-0.42l0.03,1.81
	c0.01,0.53-0.05,1.08-0.17,1.62c-1.21,7.59-2.19,15.14-2.94,22.64c-0.75,7.5-1.7,15.51-1.55,22.75c0.08,4.05,0.59,8.49,0.79,12.64
	c0.19,4.15,0.58,8.4,0.99,12.62c0.36,3.69,0.93,7.39,1.84,10.96c0.91,3.56,2.32,7.03,4.22,10.4c1.09,1.8,2.33,3.47,3.74,4.99
	c1.41,1.52,3.25,2.6,5.52,3.26c4.03,1.07,7.72,0.98,11.05-0.26c3.33-1.24,6.52-3.93,9.35-8.02c2.77-4.02,5.27-8.34,7.55-12.74
	c2.28-4.4,4.47-8.82,6.55-13.28c2.34-5.01,4.58-10.05,6.72-15.12c0.71-1.69,1.45-3.41,2.17-5.11c0.01,0.67-0.02,1.35,0,2.02
	c0.12,3.61,0.63,7.22,1.47,10.76c1.3,5.5,4.52,8.54,9.59,9.11c2.67,0.3,5.27,0.25,7.75-0.22c2.47-0.47,4.76-1.73,6.68-3.77
	c1.85-1.97,3.63-4.09,5.35-6.19c1.7-2.09,3.29-4.27,4.73-6.54c4.19-6.93,8.31-13.83,12.37-20.69c4.06-6.86,8.18-13.83,12.38-20.92
	c1.17-1.85,2.28-3.72,3.33-5.62c1.04-1.91,2.08-3.84,3.13-5.82c0.41,0.5,0.48,0.96,0.22,1.39c-2.39,10.42-4.49,20.81-6.28,31.17
	c-1.8,10.36-3.22,20.88-4.07,31.37c-0.61,7.52-0.88,15.05-0.98,22.44c-0.09,7.39,0.59,14.78,2.04,22.18
	c0.58,3.17,1.32,6.26,2.24,9.27c0.92,3.01,2.4,5.85,4.25,8.49c1.38,1.97,3.2,2.94,5.48,2.74c6.03-0.53,10.26-3.41,12.55-8.56
	c1.96-4.42,3.9-8.98,5.84-13.51c1.94-4.54,3.82-9.11,5.64-13.7c8.67-22,13.96-35.43,21.15-53.68c-0.01,1.9-0.01,3.8,0.03,5.69
	c0.24,10.05,1.39,20.05,3.43,30.04c0.32,1.67,0.59,2.95,0.83,3.84c0.22,0.89,0.58,1.49,1.06,1.8c0.48,0.3,1.18,0.4,2.12,0.3
	c0.94-0.1,2.27-0.25,4.02-0.44c1.61-0.18,2.67-0.65,3.18-1.41c0.51-0.77,0.95-1.74,1.32-2.92c2.11-5.76,4.19-11.53,6.22-17.28
	c2.03-5.75,4.21-11.54,6.4-17.3c2.13-5.58,4.6-11,7.45-16.13c2.87-5.13,6.38-9.98,10.53-14.55c2.33-2.67,4.84-5.1,7.53-7.31
	c2.67-2.21,5.61-4.05,8.78-5.53c1.46-0.58,2.49-0.76,3.11-0.55c0.61,0.22,1.26,1,1.98,2.34c1.28,2.56,1.9,5.19,1.85,7.88
	c-0.03,1.73-0.21,3.56-0.35,5.37c-6.48,5.89-12.55,12.24-18.16,18.97c-5.29,6.34-9.29,13.45-13.43,20.6
	c-4.41,7.61-7.42,17.42-7.93,26.2c-0.17,2.84,0.18,4.76,1.08,5.73c0.9,0.97,2.69,1.58,5.39,1.85c0.89,0.07,1.33,0.11,2.22,0.18
	c3.88-0.29,7.34-1.51,10.35-3.68c3.02-2.18,5.63-4.87,7.81-8.09c6.03-8.74,10.59-17.84,13.65-27.31c3.06-9.47,5.17-19.37,6.33-29.7
	c0.01-0.06,0.02-0.11,0.03-0.17c3.94-3.47,8.06-6.74,12.29-9.85c-0.82,9.28-1.24,18.5-1.16,27.59c0.1,11.32,1.11,22.62,3.01,33.92
	c0.3,1.89,0.55,3.33,0.77,4.35c0.21,1.01,0.56,1.7,1.03,2.05c0.47,0.35,1.17,0.48,2.11,0.39c0.94-0.09,2.28-0.22,4.02-0.39
	c1.61-0.15,2.68-0.66,3.2-1.5c0.52-0.85,0.98-1.93,1.36-3.24c2.19-6.42,4.34-12.85,6.46-19.27c2.11-6.42,4.37-12.86,6.65-19.28
	c2.21-6.21,4.75-12.23,7.68-17.92c2.94-5.68,6.52-11.03,10.73-16.02c2.37-2.92,4.92-5.57,7.63-7.95c2.71-2.39,5.67-4.35,8.86-5.89
	c1.46-0.6,2.5-0.76,3.11-0.5c0.6,0.27,1.25,1.18,1.95,2.71c1.24,2.93,1.82,5.92,1.74,8.95c-0.09,3.04-0.31,6.17-0.67,9.38
	c0,0.32-0.12,0.65-0.38,0.98c-0.27,0.35-0.54,0.69-0.79,1.02c-3.8,4.33-5.7,6.49-9.5,10.83c-4.74,5.51-9.16,11.31-13.23,17.41
	c-4.07,6.1-7.66,12.64-10.78,19.62c-1.43,3-2.66,6.1-3.68,9.31c-1.02,3.2-1.63,6.59-1.86,10.1c-0.21,3.19,0.11,5.37,1,6.48
	c0.89,1.12,2.67,1.87,5.36,2.26c0.89,0.11,1.33,0.17,2.22,0.28c3.88-0.2,7.36-1.46,10.4-3.79c3.05-2.34,5.7-5.28,7.93-8.82
	c6.16-9.62,10.84-19.69,14.04-30.23c3.2-10.54,5.45-21.6,6.75-33.19c0.24-2.41,1.12-4.04,2.35-4.97c1.43-1.09,2.88-2.46,4.27-3.68
	c1.19-1.04,2.41-2.09,3.65-3.14c-0.28,3.81-0.09,7.53,0.59,11.07c0.71,3.78,2.25,7.52,4.31,11.14c1.52,2.66,3.59,4.73,6.31,6.03
	c2.72,1.3,5.6,2.1,8.63,2.37c3.04,0.27,5.99,0.07,8.89-0.61c2.88-0.68,5.3-1.71,7.27-3.1c6.39-4.71,11.76-10.01,16.17-15.73
	c4.45-5.77,8.94-11.56,13.28-17.32c4.33-5.76,8.69-11.51,13.08-17.25c0.62-0.73,0.94-1.09,1.56-1.82c0.13,0,0.23,0.02,0.29,0.07
	c0.07,0.05,0.17,0.07,0.3,0.07c-0.12,2.72-0.18,4.07-0.3,6.79c-0.57,5.83-1.15,11.63-1.72,17.41c-0.58,5.78-1.1,11.62-1.72,17.4
	c-0.22,2.04-0.73,3.96-1.5,5.7c-0.77,1.75-2.06,3.46-3.88,5.14c-5.19,4.71-10.13,9.58-14.79,14.61
	c-4.68,5.03-8.86,10.37-12.61,15.87c-4.08,5.98-8,12.08-11.59,18.21c-3.6,6.14-6.54,12.56-8.81,19.24c-1.02,2.96-1.9,5.93-2.63,8.93
	c-0.75,3-0.83,6.04-0.26,9.13c0.57,3.09,1.78,5.07,3.65,5.95c1.86,0.87,4.42,1.12,7.71,0.75c3.43-0.39,6.54-1.23,9.36-2.54
	c2.81-1.32,5.39-3.05,7.73-5.19c4.94-4.2,9.23-8.68,12.85-13.45c3.61-4.76,6.89-9.81,9.86-15.05c2.79-4.93,5.25-9.98,7.28-15.1
	c2.03-5.12,3.77-10.36,5.11-15.66c1.26-4.96,2.42-9.97,3.53-14.95c1.11-4.98,2.27-10.08,3.13-15.1c0.28-1.6,0.42-3.36,0.98-4.89
	c0.39-1.05,0.71-2.41,1.22-3.39c0.33-0.62,0.93-1.05,1.51-1.44c4.1-2.82,8.13-5.82,12.34-8.5c3.98-2.54,8.03-4.97,12.08-7.4
	c6.49-3.89,13.76-6.46,21.33-7.26c5.5-0.58,11.26,0.1,16.08,2.82c3.15,1.78,4.91,4.78,6.37,7.98c2.62,5.73,3.45,11.94,3.08,18.14
	c-4.03-0.69-8.2-0.81-12.42-0.19c-14.32,2.12-29.01,9.9-40.26,18.86c-9.62,7.66-16.63,18.61-14.82,31.32
	c1.76,12.37,12.01,20.51,24.55,18.74c14.32-2.02,23.35-14.5,31.17-25.43c7.7-10.75,14.54-22.45,17.1-35.48
	c2.57,1.04,5.05,2.5,7.37,4.46c4.9,4.15,8.88,10.69,7.96,17.39c-0.5,3.64-2.78,6.74-4.46,10.01c-1.66,3.23-3.12,8.01-0.2,10.89
	c7.7,7.6,11.94-7.53,12.59-12.52C720.8,230.18,718.83,221.43,713.82,214.51z M453.75,168.69c0.41-2.58,0.75-5.19,1.25-7.76
	c2.62-13.65,5.77-27.02,9.47-40.12c3.69-13.1,8.33-25.88,13.92-38.34c2.59-5.81,5.46-11.4,8.61-16.78
	c3.14-5.37,6.81-10.23,11.05-14.57c1.18-1.21,2.41-2.23,3.68-3.06c1.25-0.82,2.63-1.64,4.09-2.37c2.36-1.17,4.53-1.24,6.44-0.28
	c1.88,0.97,3.41,2.77,4.5,5.38c1.4,3.37,2.08,6.82,2.06,10.25c-0.01,3.43-0.39,6.95-1.16,10.49c-1.23,5.66-2.99,11.12-5.19,16.31
	c-2.21,5.2-4.62,10.29-7.22,15.29c-5.87,11.33-12.19,22.06-18.95,32.22c-6.76,10.15-14.23,19.76-22.41,28.8
	c-1.72,1.92-3.41,3.63-5.05,5.14c-1.89,1.73-3.71,3.54-5.55,5.32c-0.13-0.32-0.2-0.68-0.23-1.05
	C452.93,172,453.53,170.08,453.75,168.69z M366.32,176.8c2.44-12.18,5.43-24.14,8.96-35.87c3.53-11.73,8-23.22,13.43-34.44
	c2.51-5.24,5.32-10.29,8.39-15.17c3.07-4.87,6.68-9.3,10.86-13.3c1.17-1.12,2.38-2.06,3.64-2.84c1.24-0.77,2.61-1.54,4.06-2.24
	c2.34-1.12,4.52-1.26,6.43-0.47c1.89,0.79,3.45,2.34,4.57,4.62c1.44,2.94,2.16,5.98,2.19,9.02c0.03,3.05-0.3,6.18-1.02,9.35
	c-1.15,5.07-2.85,9.98-4.98,14.67c-2.14,4.69-4.49,9.3-7.02,13.83c-5.72,10.26-11.9,20-18.53,29.23
	c-6.63,9.23-13.97,17.98-22.04,26.24c-1.69,1.75-3.36,3.32-4.99,4.7c-1.64,1.39-3.31,2.89-5,4.49c-0.33-0.22-0.49-0.33-0.82-0.54
	C365.2,183.56,365.57,181.31,366.32,176.8z M168.97,55.7c-14.07-0.85-32.32-8.5-36-23.71c-3.27-13.49,9.73-21.76,21.11-24.29
	c12.86-2.86,26.54-1.34,37.72,5.9c13.23,8.57,18.55,21.3,19.5,35.46C197.58,53.29,183.11,56.55,168.97,55.7z M104.97,130.89
	c3.63,8.97,12.23,35.14-2.27,39.13c-14.71,4.04-22.45-11.97-23.93-24.64c-1.57-13.48,3.84-25.8,10.08-37.47
	C95.93,114.42,101.59,122.55,104.97,130.89z M133.35,214.6c-0.43,2.64-0.96,5.25-1.59,7.82c-4.64,22.1-12.11,43.32-22.41,63.57
	c-2.08,4.1-4.51,7.88-7.28,11.33c-2.77,3.45-6.07,6.45-9.92,8.98c-1.6,0.99-3.23,1.88-4.89,2.66c-1.67,0.78-3.36,1.47-5.1,2.05
	c-4.14,1.32-7.32-0.15-9.52-4.4c-1.25-2.66-1.92-5.27-2.03-7.81c-0.1-2.55,0.11-5.19,0.58-7.86c0.89-5.07,2.17-10.01,3.91-14.67
	c1.74-4.67,3.86-9.25,6.34-13.74c4.97-8.98,10.78-17.2,17.44-24.67c6.67-7.48,13.91-14.6,21.73-21.38c1.85-1.55,3.81-3.05,5.87-4.49
	c2.05-1.43,4.07-2.93,6.07-4.51c0.26-0.28,1.06-0.79,2.39-1.52C134.31,209.09,133.78,211.97,133.35,214.6z M409.23,237.07
	c-2.12,5.31-4.68,10.45-7.63,15.35c-2.72,4.52-6.03,8.75-9.72,12.4c-0.95,0.93-4.6,4.51-4.7,1.14c-0.22-7.11,1.9-14.47,4.9-20.85
	c2.02-4.3,4.53-8.45,7.41-12.24c2.7-3.55,5.58-6.96,8.38-10.42c2.77-3.43,6.4-5.92,9.34-9.19
	C414.93,221.29,412.33,229.31,409.23,237.07z M504.75,205.54c-2.16,8.47-4.71,16.69-7.68,24.68c-2.97,7.99-6.75,15.6-11.33,22.86
	c-1.18,1.86-2.57,3.57-4.15,5.15c-1.59,1.58-3.11,3.29-4.56,4.95c-1.52,1.74-2.39,1.33-2.43-1.21c-0.04-2.71,0.12-5.27,0.49-7.69
	c0.99-5.51,2.56-10.72,4.7-15.61c2.13-4.9,4.65-9.6,7.53-13.94c2.59-3.89,5.39-7.68,8.28-11.36c2.9-3.67,5.73-7.46,8.49-11.35
	c0.27-0.34,0.49-0.6,0.7-0.78c0.19-0.17,0.56-0.44,1.09-0.8C505.43,202.48,505.2,203.5,504.75,205.54z M597.64,221.62
	c-0.37,1.79-0.74,3.6-1.1,5.45c-1.37,5.86-2.96,11.62-4.79,17.28c-1.84,5.66-4.14,11.33-6.97,16.89
	c-2.78,5.47-5.97,10.84-9.45,16.04c-3.48,5.21-7.7,10.07-12.63,14.62c-0.39,0.45-0.85,0.87-1.36,1.27c-0.53,0.4-1.05,0.83-1.57,1.29
	c-0.66,0.57-1.18,0.78-1.57,0.64c-0.4-0.14-0.61-0.54-0.62-1.18c-0.03-1.93-0.09-3.87-0.18-5.8c-0.09-1.93,0.04-3.88,0.41-5.83
	c0.97-5.21,2.55-10.21,4.72-14.99c2.17-4.78,4.66-9.55,7.5-14.31c7.44-13.03,16.43-24.97,26.94-35.79c0.46-0.47,0.7-0.7,1.16-1.17
	c0.4-0.01,0.66,0.03,0.79,0.13C598.45,218.02,598.01,219.84,597.64,221.62z M686.05,220.48c-4.97,11.04-12.32,21.68-20.25,30.8
	c-7.14,8.21-21.77,18.13-31.65,7.88c-6.87-7.13-5.23-18.85-0.11-26.38c6.55-9.62,18.13-15.84,28.4-20.68
	c8.67-4.09,18.69-6.88,27.96-5.37C689.52,211.49,688,216.15,686.05,220.48z"/>
<path d="M467.88,310c-3.99-6.05-8.96-10.95-14.73-14.8c-7.32-4.88-17.69-8.67-26.46-10.59c-3.3-0.73-6.67-1.06-10.05-1.03
	c-6.95,0.07-13.84,1.69-20.21,4.46c-14.16,6.14-26.56,18.67-33.63,32.28c-0.09,0.17-0.59,0.85-0.68,1.02
	c2.86-0.21,5.88-0.51,9.04-0.88c0.99-1.71,2.06-3.47,3.38-5.38c3.99-5.8,7.35-9.74,14.69-15.2c0.7-0.52,1.68-0.37,2.2,0.32
	c0.52,0.7,0.37,1.68-0.32,2.2c-7.03,5.23-10.11,8.83-13.98,14.46c-0.84,1.22-1.56,2.37-2.24,3.49c2.28-0.07,7.36-0.59,9.53-0.72
	c8.11-0.51,13.59-0.71,23.06-0.88c5.01-4.44,10.8-7.94,17.29-9.73c2.75-0.76,5.59-1.21,8.45-1.29c3.12-0.09,5.92-0.29,8.29,1.57
	c3.61,4.17,6.17,9.53,7.42,15.78c2.17,10.83,0.23,22.83-5.47,33.79c-0.28,0.54-0.56,1.07-0.86,1.6
	c-4.53,8.11-11.04,15.24-19.07,19.97c-6.61,3.9-15.7,7.23-23.22,4.37c-1.58-0.6-2.92-1.6-4.15-2.77c-4.15-4.83-6.1-12.47-6.76-18.15
	c-0.95-8.19,0.42-16.52,3.42-24.18c-2.82,0.31-10.73,0.61-13.2,0.79c-3.91,0.28-7.86,0.7-11.81,0.88
	c-0.74,4.49-2.09,15.69,1.23,23.65c0.33,0.8-0.04,1.72-0.85,2.06c-0.2,0.08-0.4,0.12-0.61,0.12c-0.61,0-1.2-0.36-1.45-0.97
	c-3.51-8.41-2.35-19.57-1.61-24.71c-1.29,0.06-6.07,0.71-8.18,1.06c-0.2,0.03-0.09,0.38-0.13,0.62c-0.94,6.84-0.8,13.88,0.56,20.65
	c1.62,8.09,4.98,15.88,10.23,22.29c10.12,12.37,25.99,20.87,41.82,22.45c6.71,0.67,14.99,0.91,21.39-1.13
	c18.59-5.91,28.15-15.22,36.14-27.94c1.1-1.76,2.13-3.56,3.09-5.4c6.75-12.99,8.71-29.85,6.43-44.4
	C474.76,322.44,471.93,316.14,467.88,310z M469.4,349.74c-1.38,10.1-3.65,18.14-8.87,26.97c-3.37,5.7-7.8,10.79-13.31,14.5
	c-2.37,1.6-5.75,4.17-8.67,4.4c-2.84,0.23-4.93-1.62-3.13-4.38c0.99-1.52,2.59-2.51,4.1-3.51c6.53-4.33,11.88-10.02,16.56-16.25
	c4.46-5.94,7.09-13.05,8.8-20.22c0.87-3.66,1.5-7.37,1.98-11.09c0.44-3.4-0.01-7.45,0.81-10.69c0.07-0.27,0.18-0.57,0.43-0.68
	c1.15-0.51,1.66,1.93,1.83,5.3C470.24,340.15,469.47,349.21,469.4,349.74z"/>
<path d="M443.6,332.43c0-0.5-0.06-0.99-0.08-1.49c-0.54-2.64-1.24-5.24-2.04-7.81c-16.7,0.11-35.72,0.84-52.14,1.99
	c-39.77,2.77-79.14,8.6-117.76,17.41c-7.25,1.65-14.47,3.41-21.66,5.27c-5.31,1.38-11.07,2.32-16.58,2.08
	c-5.21-0.23-8.13-3.22-12.3-5.62c-2.59-1.49-5.07-3.12-7.55-4.88c-0.04-0.03-0.07-0.05-0.18-0.14c-0.34-0.26-0.69-0.52-1.03-0.79
	c-0.57-0.44-1.13-0.89-1.69-1.35c-1.22-1.01-2.41-2.05-3.58-3.11c-1.82-1.67-5.22-1.79-7.14,0.1c-1.89,1.86-2.15,4.76-0.2,6.53
	c3.88,3.5,8.12,6.64,12.61,9.41c1.84,1.14,4.42,1.65,3.7,4c-0.51,1.64-2.86,2.71-4.5,2.76c-4.46,0.15-9.6-4.65-12.98-6.85
	c-4.8-3.13-9.65-6.21-14.56-9.25c-2.14-1.32-5.71-0.16-6.91,1.96c-1.38,2.45-0.48,4.83,1.8,6.23c3.2,1.96,21.07,12.04,12.27,15.66
	c-3.78,1.56-12.5-4.31-15.82-5.84c-5.19-2.4-10.23-5.12-15.7-7.08c-1.5-0.54-3.17-1.07-4.74-0.52c-1.97,0.69-2.95,2.94-2.56,4.79
	c0.93,4.38,6.85,5.3,10.55,6.96c5.27,2.37,10.48,4.79,15.64,7.26c-1.69,0.62-2.54,0.93-4.22,1.56c-5.89,2.2-3.19,10.96,2.67,8.77
	c1.28-0.48,2.56-0.95,3.85-1.43c-3.3,5.09-6.53,10.2-9.67,15.32c-1.69,2.76-6.42,10.03-0.51,11.83c3.93,1.2,8.27-6.7,9.96-9.41
	c2.69-4.32,5.44-8.62,8.25-12.91c1.2-1.84,5.34-8.81,7.02-3.47c0.67,2.12-1.04,4.53-1.86,6.4c-1.19,2.7-2.31,5.42-3.25,8.2
	c-0.77,2.3,1,5.08,3.37,5.55c2.61,0.52,4.89-0.89,5.73-3.34c1.91-5.54,3.73-9.93,6.2-14.94c1.83-3.7,3.84-11.84,8.36-13.44
	c3.97-1.41,3.16,3.19,2.22,5.6c-1.27,3.25-2.56,6.43-3.4,9.81c-0.58,2.34,0.64,5.07,3.19,5.66c2.37,0.55,5.22-0.66,5.86-3.15
	c0.64-2.5,1.43-4.96,2.39-7.37c0.46-1.16,0.96-2.3,1.49-3.42c0.04-0.09,0.09-0.19,0.15-0.3c0.14-0.29,0.29-0.58,0.44-0.87
	c0.3-0.58,0.61-1.15,0.93-1.72c3.35-5.95,6.53-10.21,13.5-12.57c9.14-3.09,19.76-6.06,29.18-8.26c19.06-4.44,38.31-8.14,57.7-11.1
	C364.38,335.57,406.43,332.57,443.6,332.43z"/>
<path d="M631.65,347.43c-4.12-3.67-8.84-6.54-13.31-10.03c-5.59-4.36-11.25-8.66-17-12.9c-2.2-1.62-5.21-2.04-7.24-0.19
	c-1.73,1.58-1.98,4.92,0.22,6.53c1.53,1.12,7.26,5.13,3.85,6.57c-0.68,0.29-1.47,0.31-2.23,0.26c-6.28-0.38-12.75-1.71-18.95-2.8
	c-7.42-1.3-14.85-2.49-22.28-3.56c-15.06-2.19-30.14-3.93-45.22-5.22c-9.64-0.83-19.28-1.45-28.92-1.91
	c0.88,3.06,1.63,6.16,2.19,9.31c15.06,0.81,30.13,2.03,45.21,3.63c11.88,1.26,23.75,2.92,35.61,4.81
	c6.13,0.97,12.25,2.02,18.37,3.15c2.61,0.48,5.22,0.71,7.87,1.3c2.84,0.64,8.49,2.05,5.92,5.46c-1.73,2.31-5.54,2.88-8.02,4.22
	c-5.4,2.93-0.31,10.93,5.08,8.04c6.03-3.23,12.71-5.46,19.7-6.54c3.9-0.6,7.89-0.68,11.87-0.87c2.86-0.13,9.22,0.49,10.81-2.06
	c1.22-1.95-0.05-3.8-1.76-5.52C632.85,348.53,632.26,347.97,631.65,347.43z"/>
<path d="M332.57,385.02l-5.46-1.48c-6.62-1.8-11.85-6.87-13.84-13.44l-1.64-5.41c-1.01-3.33-5.74-3.26-6.65,0.1l-1.48,5.46
	c-1.8,6.62-6.87,11.85-13.43,13.84l-5.41,1.64c-3.33,1.01-3.26,5.74,0.1,6.66l5.46,1.48c6.62,1.8,11.85,6.87,13.84,13.43l1.64,5.41
	c1.01,3.33,5.74,3.26,6.65-0.1l1.48-5.46c1.8-6.62,6.87-11.85,13.44-13.84l5.41-1.64C335.99,390.66,335.92,385.93,332.57,385.02z"/>
<path d="M554.49,102.18l4.1,1.24c4.98,1.51,8.83,5.48,10.19,10.5l1.12,4.14c0.69,2.54,4.28,2.6,5.05,0.07l1.24-4.1
	c1.51-4.98,5.48-8.83,10.5-10.19l4.14-1.12c2.55-0.69,2.6-4.28,0.07-5.05l-4.1-1.25c-4.98-1.51-8.83-5.48-10.19-10.5l-1.12-4.14
	c-0.69-2.55-4.28-2.6-5.05-0.07l-1.24,4.1c-1.51,4.98-5.48,8.83-10.5,10.19l-4.14,1.12C552.02,97.82,551.96,101.41,554.49,102.18z"
	/>
<path d="M498.2,296.08c3.88,1.05,6.95,4.03,8.11,7.88l0.96,3.17c0.59,1.95,3.37,1.91,3.9-0.06l0.87-3.2
	c1.05-3.88,4.03-6.95,7.88-8.12l3.17-0.96c1.95-0.59,1.91-3.37-0.06-3.9l-3.2-0.87c-3.88-1.05-6.95-4.03-8.12-7.88l-0.96-3.17
	c-0.59-1.95-3.37-1.91-3.9,0.06l-0.87,3.2c-1.05,3.88-4.03,6.95-7.88,8.12l-3.17,0.96c-1.95,0.59-1.91,3.37,0.06,3.9L498.2,296.08z"
	/>
<path d="M239.48,299.89c3.88,1.05,6.95,4.03,8.12,7.88l0.96,3.17c0.59,1.95,3.37,1.91,3.9-0.06l0.87-3.2
	c1.05-3.88,4.03-6.95,7.88-8.12l3.17-0.96c1.95-0.59,1.91-3.37-0.06-3.9l-3.2-0.87c-3.88-1.05-6.95-4.03-8.12-7.88l-0.96-3.17
	c-0.59-1.95-3.37-1.91-3.9,0.06l-0.87,3.2c-1.05,3.88-4.03,6.95-7.88,8.11l-3.17,0.96c-1.95,0.59-1.91,3.37,0.06,3.9L239.48,299.89z
	"/>
<path d="M642.41,298.87l-3.2-0.87c-3.88-1.05-6.95-4.03-8.11-7.88l-0.96-3.17c-0.59-1.95-3.37-1.91-3.9,0.06l-0.87,3.2
	c-1.05,3.88-4.03,6.95-7.88,8.12l-3.17,0.96c-1.95,0.59-1.91,3.37,0.06,3.9l3.2,0.87c3.88,1.05,6.95,4.03,8.11,7.88l0.96,3.17
	c0.59,1.95,3.37,1.91,3.9-0.06l0.87-3.2c1.05-3.88,4.03-6.95,7.88-8.12l3.17-0.96C644.42,302.18,644.38,299.4,642.41,298.87z"/>
<path d="M448.39,828.04c0.71,0.01,1.43,0.04,2.14,0.05c0.05-0.4,0.14-0.78,0.18-1.19c0.2-2.24,0.22-4.45,0.11-6.62
	c-21.63-0.34-43.21,0.11-64.7,1.37c-22.22,1.31-44.34,3.47-66.3,6.47c-9.59,1.31-19.29,3.42-28.9,4.45
	c-4.88,0.52-9.78,1.72-14.61,2.63c-4.5,0.85-9.08,2.17-13.66,2.25c-1.57,0.03-3.18-0.09-4.6-0.76c-3.16-1.49-6.59-3.53-9.46-5.52
	c-2.07-1.44-4.04-2.99-5.99-4.65c-0.03-0.03-0.05-0.05-0.15-0.14c-0.27-0.25-0.54-0.49-0.81-0.74c-0.45-0.41-0.89-0.84-1.32-1.26
	c-0.96-0.94-1.89-1.9-2.79-2.89c-1.41-1.54-4.22-1.88-5.93-0.41c-1.68,1.45-2.08,3.9-0.56,5.54c5.2,5.62,11.34,10.35,18.02,14.2
	c-3.87,0.86-7.04,1.99-10.77,0.21c-2.79-1.34-5-3.53-7.38-5.42c-4.27-3.39-8.58-6.75-12.94-10.08c-1.69-1.29-4.72-0.57-5.86,1.14
	c-1.31,1.97-0.73,4.07,1.08,5.43c5.73,4.33,11.37,8.72,16.94,13.17c-4.12,1.02-6.99,1.59-10.98-0.1c-3.12-1.32-5.84-3.33-8.72-5.06
	c-5.19-3.11-10.43-6.18-15.73-9.2c-1.85-1.06-4.66-0.58-5.83,1.3c-1.15,1.85-0.75,4.29,1.22,5.4c7.22,4.07,14.33,8.24,21.33,12.49
	c-1.21,0.33-2.43,0.66-3.64,0.99c-5.07,1.4-3.46,9.07,1.6,7.67c1.11-0.31,2.22-0.61,3.32-0.91c-4.94,6.41-9.75,12.87-14.44,19.37
	c-1.22,1.69-0.56,4.39,1.23,5.4c1.95,1.09,4.19,0.56,5.49-1.23c3.46-4.77,7-9.51,10.59-14.23c1.8-2.36,3.61-4.72,5.45-7.06
	c1.18-1.51,2.58-2.85,3.97-4.18c1.7-1.63,2.67-1.98,5-2.56c-3.91,6.02-7.28,12.32-10.08,18.84c-0.82,1.9,0.48,4.4,2.45,4.98
	c2.17,0.64,4.19-0.4,5.07-2.42c1.99-4.57,3.82-8.18,6.24-12.27c2.43-4.13,5.13-8.12,8.06-11.97c2.01-0.47,4.02-0.93,6.03-1.39
	c-3.52,4.76-6.35,9.96-8.17,15.53c-0.64,1.96,0.21,4.36,2.33,5.04c1.97,0.63,4.45-0.21,5.15-2.29c0.7-2.08,1.52-4.13,2.47-6.12
	c0.87-1.8,1.83-3.5,2.92-5.18c1.18-1.81,2.48-3.55,3.89-5.21c2.94-3.48,7.07-5.17,11.48-6.06c5.37-1.08,10.76-2.11,16.15-3.09
	c10.79-1.96,21.62-3.71,32.5-5.25c21.75-3.09,43.64-5.34,65.65-6.75C404.12,828.32,426.23,827.75,448.39,828.04z"/>
<path d="M593.9,834.3c-0.39-0.24-0.79-0.45-1.17-0.67c-4.39-2.47-9.02-4.68-13.11-7.58c-4.18-2.96-8.32-5.99-12.58-8.87
	c-1.89-1.27-4.39-1.49-6.01,0.19c-1.38,1.42-1.47,4.29,0.42,5.56c1.56,1.05,7.31,3.56,6.92,5.71c-0.48,2.63-12.38-0.33-14.48-0.62
	c-11.21-1.52-22.42-2.81-33.63-3.89c-9.6-0.92-19.19-1.65-28.78-2.25c0.09,2.58,0.05,5.18-0.13,7.8c4.99,0.32,9.99,0.67,14.98,1.07
	c10.41,0.84,20.82,1.87,31.23,3.09c5.2,0.61,10.41,1.27,15.61,1.97c2.66,0.36,5.31,0.73,7.97,1.12c1.54,0.22,7.03,0.57,4.41,3.19
	c-1,1-3,1.49-4.27,2.14c-1.5,0.76-2.96,1.58-4.38,2.46c-4.4,2.74,0.17,9.34,4.57,6.62c4.77-2.95,10.07-5.14,15.66-6.45
	c3.81-0.89,7.76-1.1,11.69-1.44c3.62-0.31,7.41-0.18,8.03-4.38C597.15,836.98,595.66,835.35,593.9,834.3z"/>
<polygon points="461.88,741.54 453.22,746.48 478.57,759.38 477.84,749.4 "/>
<polygon points="466.97,738.34 457.96,735.52 462.53,739.26 478.47,747.24 485.31,749.56 477.84,743.71 "/>
<polygon points="496.04,765.52 490.12,753.57 480.1,750.43 481.46,760.83 "/>
<polygon points="438.45,735.98 450.45,745.17 459.64,740.13 451.23,733.47 "/>
<path d="M472.16,785.46c-0.82-0.97-1.67-1.99-2.62-2.85c-0.36-0.32-0.77-0.75-1.19-1.14l26.92-13.93l-14.61-4.17l-20.06,17.75
	c2.72-3.51,17.42-18.93,17.42-18.93l-25.97-13.45l-4.79,25.89c-0.18,0.59,2.29-27.32,2.29-27.32l-12.63-9.61l4.88,31.7
	c-0.03,0-0.06-0.01-0.08-0.01c-2.25-0.29-4.51-0.44-6.78-0.47c-4.58-0.07-9.16,0.35-13.67,1.15c-3.04,0.53-6.01,1.43-8.85,2.63
	c-5.85,2.48-11.11,6.25-15.53,10.8c-8.56,8.82-13.93,20.39-15.99,32.46c1.56-0.1,3.13-0.23,4.69-0.32
	c2.05-11.04,6.96-21.02,14.17-28.52c1.52-1.58,11.57-11.21,13.82-8.75c0.44,0.48-0.93,1.69-1.42,2.12
	c-1.96,1.69-2.97,2.38-4.56,3.47c-2.23,1.53-4.29,3.3-6.17,5.25c-6.63,6.89-11.14,16.09-13.06,26.3c6.88-0.38,13.79-0.69,20.71-0.91
	c4.21-15.08,15.06-26.29,27.74-28.58c0.68,0.26,1.36,0.53,2.02,0.85c0.05,0.02,0.09,0.04,0.13,0.07c0.71,0.35,1.38,0.8,2.07,1.21
	c3.2,2.21,6.09,5.18,8.52,8.83c5.6,8.39,8.14,19.21,7.14,30.46c-1.74,19.59-13.82,35.04-28.31,37.83c-1.47-0.55-2.88-1.25-4.25-2.03
	c-8.78-5.69-14.92-16.27-16.5-28.69c-6.52,0.22-13.02,0.56-19.5,0.94c0.64,3.83,1.62,7.61,3.1,11.21c1.55,3.76,3.56,7.33,6.05,10.55
	c1.16,1.5,2.44,2.88,3.76,4.21c1.03,1.04,2.54,4.05,0.5,4.15c-0.25,0.01-0.47-0.13-0.68-0.26c-9.5-6.18-14.29-17.99-15.81-29.71
	c-0.86,0.05-1.72,0.07-2.58,0.12c-0.66,0.04-1.32,0.1-1.98,0.15c1.2,9.3,4.32,18.05,9.27,25.46c4.19,6.27,9.74,11.68,16.4,15.28
	c12.86,6.93,29.23,8.59,43.16,4.41c5.9-1.77,11.31-4.94,15.95-8.98c10.45-9.09,16.9-22.24,19.22-35.77
	c0.32-1.87,0.57-3.75,0.73-5.64c1.18-13.33-1.44-27.19-8.43-38.7C475.45,789.68,473.89,787.5,472.16,785.46z M478.17,825.1
	c0.21-2.85,0.45-7.39,0.75-9.74c0.02-0.2,0.07-0.41,0.22-0.51c0.65-0.43,1.1,1.27,1.41,3.65c0.55,4.28,0.64,10.78,0.62,11.16
	c-0.22,7.27-1.35,13.84-4.86,20.76c-2.07,4.08-4.97,8.45-8.03,11.44c-1.32,1.29-3.5,3.5-5.23,3.85c-1.68,0.34-3.04-0.84-2.13-2.92
	c0.5-1.14,1.39-1.95,2.23-2.75c3.63-3.49,6.69-7.59,9.1-12.31c2.3-4.5,3.4-7.22,4.62-13.04
	C477.42,832.07,477.97,827.78,478.17,825.1z"/>
<path d="M278.15,769.91l-1.64-5.41c-1.01-3.33-5.74-3.26-6.65,0.1l-1.48,5.46c-1.8,6.62-6.87,11.85-13.44,13.84l-5.41,1.64
	c-3.33,1.01-3.26,5.74,0.1,6.65l5.46,1.48c6.62,1.8,11.85,6.87,13.84,13.44l1.64,5.41c1.01,3.33,5.74,3.26,6.65-0.1l1.48-5.46
	c1.8-6.62,6.87-11.85,13.44-13.84l5.41-1.64c3.33-1.01,3.26-5.74-0.1-6.65l-5.46-1.48C285.37,781.55,280.14,776.47,278.15,769.91z"
	/>
<path d="M362.23,865.44l-4.47-1.21c-5.42-1.47-9.71-5.63-11.34-11.01l-1.34-4.43c-0.83-2.73-4.71-2.67-5.45,0.08l-1.21,4.47
	c-1.47,5.42-5.63,9.71-11.01,11.34l-4.43,1.34c-2.73,0.83-2.67,4.71,0.08,5.45l4.47,1.21c5.42,1.47,9.71,5.63,11.34,11.01l1.34,4.43
	c0.83,2.73,4.71,2.67,5.45-0.08l1.21-4.47c1.47-5.42,5.63-9.71,11.01-11.34l4.43-1.34C365.04,870.06,364.98,866.18,362.23,865.44z"
	/>
<path d="M572.89,579.46l4.47,1.21c5.42,1.47,9.71,5.63,11.34,11.01l1.34,4.43c0.83,2.73,4.71,2.67,5.45-0.08l1.21-4.47
	c1.47-5.42,5.63-9.71,11.01-11.34l4.43-1.34c2.73-0.83,2.67-4.71-0.08-5.45l-4.47-1.21c-5.42-1.47-9.71-5.63-11.34-11.01l-1.34-4.43
	c-0.83-2.73-4.71-2.67-5.45,0.08l-1.21,4.47c-1.47,5.42-5.63,9.71-11.01,11.34l-4.43,1.34
	C570.08,574.83,570.14,578.71,572.89,579.46z"/>
<path d="M600.37,783.99l-3.37-0.91c-4.09-1.11-7.32-4.25-8.55-8.3l-1.01-3.34c-0.62-2.06-3.55-2.01-4.11,0.06l-0.91,3.37
	c-1.11,4.09-4.25,7.32-8.3,8.55l-3.34,1.01c-2.06,0.62-2.01,3.55,0.06,4.11l3.37,0.91c4.09,1.11,7.32,4.25,8.55,8.3l1.01,3.34
	c0.62,2.06,3.55,2.01,4.11-0.06l0.91-3.37c1.11-4.09,4.25-7.32,8.3-8.55l3.34-1.01C602.49,787.47,602.44,784.55,600.37,783.99z"/>
<path d="M317.08,646.34c0.83,2.74,5.36,2.58,7.01,0.96c1.12-1.1,1.74-3.24,2.68-4.55c0.98-1.36,2.09-2.61,3.3-3.78
	c4.18-4.05,9.46-6.59,13.83-10.36c6.91-5.97,10.59-9.64,13.6-18.49c2.42-7.12,1.32-15.61-3.56-21.47
	c-4.56-5.49-12.78-6.7-19.12-3.75c-4.35,2.03-7.44,5.82-9.63,10.11c-1.71-3.15-4.14-5.87-7.37-7.67c-6.21-3.46-14.03-2.41-19.6,1.81
	c-6.12,4.64-8.22,12.23-6.26,19.55c2.06,7.68,7.92,13.6,13.25,19.2C310.55,633.51,314.79,638.81,317.08,646.34z M308.35,592.98
	c4.64-1.35,9,1.87,11.18,5.81c1.31,2.37,1.42,5.5,3.15,7.64c1.85,2.28,4.4,0.66,5.3-1.41c1.23-2.85,2.62-6.47,4.5-9
	c3.65-4.9,10.61-6.29,14.19-3.24c4.06,3.45,4.75,10.06,3.65,14.19c-2.64,9.94-13.45,16.22-17.24,19.47
	c-2.32,1.99-9.19,6.1-12.4,12.02c-2.03-4.29-4.65-8.17-8-11.8c-5.11-5.53-10.22-11.57-11.85-19.28
	C299.21,599.61,303.1,594.5,308.35,592.98z"/>
<path d="M211.63,782.37c4.25-5.93,8.22-12.05,11.93-18.36c5.3-9.38,10.39-18.82,15.28-28.32c4.88-9.5,9.43-19.18,13.65-29.04
	c3.56-8.34,6.94-16.69,10.17-25.07c3.22-8.38,6.11-16.96,8.75-25.58c8.83-28.75,17.92-57.73,15.5-88.39
	c-0.21-2.71-0.51-5.41-0.91-8.09c56.28-24,108.83-56.83,172.14-59.47c28.18-1.17,60.72,9.18,74.49,30.28
	c6.08,9.33,7.71,23.12,0.41,33.26c-7.16,9.95-25.36,14.67-34.54,4.84c-5.78-6.18-5.82-14.14-1.49-21.09
	c3.07-4.93-2.23-7.87-6.54-7.55c-9.46,0.71-16.51,8.94-14.58,18.51c5.56,27.61,40.89,33.16,62.01,17.08
	c23.5-17.88,15.92-51.53-4.17-68.62c-22.25-18.92-53.97-24.09-82.3-21.76c-30.62,2.52-59.84,13.09-87.36,26.28
	c-26.76,12.82-52.42,27.93-79.62,39.82c-1.62-6.94-3.96-13.64-7.17-19.95c-8.35-16.39-25.39-29.08-43.34-33.5
	c-20.61-5.07-43.63,0.12-54.67,19.77c-11.57,20.6,0.6,42.56,20.72,51.66c23.73,10.55,52.9,5.48,75.69-5.45
	c0.93,2.1,0.75,4.23,1.04,6.45c2.95,22.29-4.89,45.38-10.67,66.65c-3.39,13.3-7.61,26.22-12.68,38.77
	c-5.07,12.55-10.65,25.03-16.71,37.43c-2.64,5.44-5.42,10.81-8.32,16.13c-2.9,5.32-5.68,10.75-8.32,16.31
	c-3.83,8.06-8,15.9-12.49,23.53c-4.5,7.62-9.74,14.85-15.72,21.67c-1.47,1.7-3.1,3.32-4.9,4.84c-1.8,1.52-3.66,2.93-5.5,4.26
	c-1.59,1.15-3.24,1.87-4.91,2.11c-1.68,0.23-3.28-0.41-4.75-1.94c-1.34-1.39-2.63-2.77-3.85-4.11c-1.21-1.34-2.3-2.86-3.26-4.55
	c-3.53-6.12-6-12.53-7.39-19.23c-1.39-6.71-2.16-13.64-2.38-20.71c-0.15-4.94-0.18-9.89-0.02-14.79c0.17-4.91,0.41-9.8,0.79-14.63
	c0.94-11.82,2.23-23.56,3.76-35.11c1.51-11.55,3.45-23.25,5.96-34.84c1.38-6.35,2.96-12.67,4.58-18.87c1.63-6.2,3.83-12.33,6.6-18.4
	c0.65-1.65,0.31-2.57-1.03-2.76c-0.27-0.12-0.55-0.24-0.81-0.36c-0.27-0.11-0.54-0.3-0.81-0.56c-4.18-3.11-7.66-2.45-10.44,2
	c-0.4,0.56-0.77,1.08-1.1,1.57c-0.32,0.49-0.69,0.94-1.09,1.36c-3.46,4.48-6.84,8.95-10.16,13.41c-3.32,4.46-6.64,8.91-9.96,13.35
	c-6.76,9.03-13.67,17.77-20.72,26.2c-7.04,8.44-14.42,16.65-22.13,24.62c-1.47,1.51-3.07,2.86-4.8,4.04
	c-1.74,1.18-3.67,2.29-5.41,3.43c-1.7,1.11-3.18,0.72-4.24-1.53c-1.1-2.35-1.82-4.87-2.16-7.41c-0.36-2.54-0.46-5.11-0.36-7.64
	c0.13-3.46,0.25-6.97,0.42-10.47c0.18-3.49,0.45-6.98,0.82-10.48c0.75-7.12,1.8-14.08,3.16-20.88c0.25-1.28,0.6-2.55,0.89-3.82
	c1.77,0.09,3.55,0.1,5.34,0c13.62-0.76,27.75-6.77,35.48-18.43c7.13-10.76,6.05-26.94-4.84-34.89
	c-13.05-9.53-29.02,2.73-35.78,14.22c-0.53,0.9-1.01,1.84-1.49,2.78c-1.53,3-2.84,5.98-4.16,9.04c-2.24,5.2-4.18,10.61-5.91,16.08
	c-0.05,0.17-0.09,0.34-0.15,0.5c-5.38-1.73-10.45-4.35-14.79-7.77c-7.61-5.99-11.32-17.41-11.66-26.73
	c-0.07-1.99-0.19-4.1-1.33-5.73c-1.26-1.8-3.64-2.63-5.82-2.36c-7.28,0.87-6.24,9.22-4.91,14.57c1.74,6.96,5.84,13.29,10.4,18.73
	c6.75,8.05,15.76,14.18,25.75,17.44c-1.07,3.96-2.03,7.91-2.77,11.83c-1.28,6.78-2.21,13.77-2.65,20.85
	c-0.25,4-0.23,8.01-0.01,11.97c0.24,3.95,0.95,7.9,2,11.76c1.56,5.69,4.07,9.72,7.65,11.88c3.56,2.17,8.26,2.89,14,2.07
	c3.19-0.45,6.12-1.45,8.72-2.92c2.61-1.48,5.04-3.38,7.3-5.73c5.99-6.08,11.64-12.41,16.96-18.98c5.31-6.57,10.63-13.26,15.93-20.08
	c1.73-2.22,3.42-4.51,5.08-6.87c1.66-2.36,3.36-4.72,5.08-7.09c0.16,0.15,0.24,0.23,0.41,0.38c0,0.08,0,0.12,0,0.2
	c0.01,0.8-0.06,1.35-0.18,1.62c-3,11.01-5.49,22-7.49,32.96c-1.99,10.96-3.42,22.17-4.47,33.4c-0.81,8.71-1.45,17.44-1.71,26.04
	c-0.27,8.59,0.34,17.32,1.71,26.09c0.87,5.57,2.13,11.04,3.85,16.33c1.72,5.29,4.14,10.28,7.27,14.96c1.89,2.86,4.09,5.3,6.6,7.32
	c2.49,2.02,5.51,3.32,8.98,3.95c6.01,1.1,11.61,0.72,16.69-1.26c5.07-1.98,9.95-4.81,14.62-8.47
	C202.27,793.61,207.39,788.3,211.63,782.37z M201.01,557.09c-10.99-8.85-11.9-20.82-10.54-27.58c1.6-7.98,9.19-15.14,17.3-18.12
	c11.41-4.18,32.45-6.49,49.2,8.44c10.05,8.96,15.15,22,17.75,35.36C250.04,564.97,219.66,572.11,201.01,557.09z M91.08,622.14
	c1.18-3.38,2.47-6.7,3.85-9.94c1.38-3.25,3.19-6.38,5.46-9.39c2.25-3.2,5.73-5.98,9.39-7.36c6.67-2.53,14.32,0.35,14.27,8.04
	c-0.04,6.31-3.93,13.71-8.66,17.81c-7.5,6.51-17.09,9.26-26.73,9.01C89.41,627.58,90.18,624.86,91.08,622.14z"/>
<path d="M684.19,680.59c-1.21-13.27-7.94-25.21-19.51-32.11c-11.38-6.79-25.46-8.12-38.29-5.56c-9.29,1.85-18.87,5.63-26.59,11.16
	c-4.54,2.83-8.91,5.95-13.08,9.2c-2.23,1.73-4.39,3.53-6.56,5.33c0.06-1.01,0.12-1.98,0.2-3.31c0.61-7.4,0.99-14.78,1.13-22.16
	c0.15-7.38-0.07-14.76-0.67-22.12c-0.14-1.73-0.46-3.34-0.94-4.81c-1.25-3.81-6.37-3.85-9.58-3.75c-2.05,0.06-3.15,3.19-3.59,4.84
	c-0.27,1.01-0.73,2.01-1.39,2.96c-6.36,10.68-12.88,21.16-19.57,31.44c-6.7,10.28-14.03,20.25-22,29.92
	c-3.33,3.99-7.38,7.66-11.43,10.92c-0.83,0.67-1.71,1.33-2.73,1.61c-2.62,0.7-3.69-1.97-4.78-3.83c-0.61-1.03-1.12-2.15-1.53-3.33
	c-1.92-5.52-3-11.15-3.25-16.91c-0.24-5.75-0.02-11.64,0.77-17.56c0.74-5.53,1.76-11.01,3-16.38c1.22-5.37,2.96-10.67,5.2-15.9
	c0.27-0.55,0.26-1.15-0.01-1.81c-1.62-2.32-3.72-3.37-6.26-3.16c-2.55,0.22-4.55,1.58-6,4.09c-3.57,6.53-6.27,13.21-8.1,20.03
	c-1.82,6.83-3.09,13.93-3.66,21.17c-0.12,1.51-0.08,2.98-0.09,4.47c-0.16,0.24-0.31,0.46-0.47,0.7c-2,3.02-4.11,5.94-6.37,8.78
	c-3.99,5.1-8.01,10.21-12.05,15.33c-4.05,5.12-8.61,9.81-13.68,14.08c-2.8,2.49-5.66,4.85-8.59,7.09c-2.94,2.24-6.15,4.03-9.62,5.37
	c-1.87,0.68-3.21,0.85-4.02,0.52c-0.81-0.34-1.58-1.44-2.24-3.25c-0.98-2.7-1.51-5.51-1.67-8.32c-0.32-6.15,0.07-12.22,1.17-18.21
	c0.72-3.96,1.51-7.91,2.35-11.85c0.82-3.81,1.94-7.35,3.08-11.06c6.44-3.25,13.04-5.94,19.08-9.97c5.76-3.84,10.98-8.48,15.54-13.69
	c0.65-0.75,1.26-1.54,1.92-2.28c3.98-4.44,6.34-9.6,7.12-15.39c0.36-2.69,0.26-5.25-0.36-7.63c-0.63-2.37-2.15-4.35-4.58-5.93
	c-2.42-1.57-4.95-2.5-7.56-2.79c-2.62-0.28-5.33,0.42-8.14,2.1c-2.8,1.69-5.33,3.52-7.6,5.5c-2.27,1.98-4.46,4.19-6.59,6.64
	c-8.98,10.84-15.88,22.98-20.7,36.38c-0.5,0.13-1.01,0.35-1.55,0.81c-4.13,3.82-8.46,7.4-12.99,10.72
	c-4.54,3.33-9.24,6.6-14.01,9.43c-4.56,2.71-9.35,5.22-14.02,7.64c-4.69,2.41-9.49,4.57-14.45,6.48c-1.87,0.83-2.94,1.13-3.2,0.88
	c-0.27-0.24-0.22-1.26,0.17-3.04c0.78-3.69,1.58-7.38,2.42-11.08c0.84-3.7,1.72-7.4,2.63-11.1c0.27-0.96,0.86-1.75,1.79-2.37
	c2.67-1.71,5.31-3.38,7.91-5.01c2.61-1.63,5.1-3.35,7.5-5.17c14.67-11.19,27.35-23.68,38.04-37.49
	c10.69-13.81,19.65-29.03,26.9-45.69c1.98-4.44,3.59-9.02,4.83-13.74c1.23-4.72,1.72-9.51,1.39-14.29
	c-0.28-4.12-1.97-7.51-5.01-10.1c-3.03-2.59-6.76-3.75-10.79-3.2c-3,0.41-5.89,1.43-8.43,2.77c-2.53,1.34-4.94,2.91-7.2,4.7
	c-4.94,3.88-9.4,8.18-13.38,12.86c-3.99,4.69-7.71,9.53-11.15,14.52c-10.08,14.4-18.72,29.3-25.92,44.68
	c-7.19,15.39-13.19,31.37-18.03,47.87c-1.38,4.69-2.62,9.38-3.81,14.07c-3.26,7.6-6.55,15.15-9.99,22.57
	c-4.08,8.81-8.46,17.51-13.08,26.1c-1.72,3.1-3.4,6.2-5.06,9.3c-1.66,3.09-3.34,6.13-5.06,9.09c-0.27,0.56-0.59,1.06-0.99,1.49
	c-0.4,0.44-0.93,1.02-1.59,1.75c-0.01-0.94-0.06-1.68-0.13-2.21c-0.07-0.53-0.04-1.14,0.1-1.82c0.24-2.58,0.49-5.15,0.74-7.71
	c0.25-2.57,0.47-5.18,0.75-7.72c0.56-5.1,1.15-10.2,1.6-15.13c0.43-4.94,0.89-9.98,1.39-15.12c0.53-8.09,2.59-17.67,1.65-25.7
	c-0.57-4.85-8.57-9.78-12.83-5.74c-0.48,0.45-0.95,1.08-1.21,1.91c-0.8,2.35-1.41,4.62-1.8,6.79c-0.91,5.99-1.86,11.91-2.83,17.76
	c-0.97,5.85-1.81,11.81-2.59,17.73c-0.61,4.59-1.04,9.21-1.2,13.79c-0.17,4.58,0.12,9.2,0.81,13.82c0.24,1.66,0.62,3.29,1.13,4.88
	c0.1,0.31,0.21,0.62,0.32,0.93c0.68,1.88,1.37,3.74,2.06,5.56c1.39,3.1,3.8,4.71,7.23,4.82c2.17,0.08,4.17-0.26,5.97-1.02
	c1.81-0.76,3.43-2.14,4.9-4.15c0.79-1.14,1.59-2.32,2.38-3.53c0.79-1.21,1.52-2.45,2.18-3.71c5.41-11.34,10.76-22.68,16.03-34.01
	c1.42-3.04,2.92-6.09,4.36-9.14c-0.43,2.29-0.88,4.57-1.26,6.85c-2.37,14.17-3.64,28.58-3.79,43.21
	c-0.08,7.52,0.08,14.99,0.48,22.41c0.39,7.42,1.41,14.74,3.09,21.97c0.68,2.49,1.45,4.88,2.27,7.15c0.81,2.27,2.04,4.37,3.66,6.22
	c1.74,1.99,4.02,2.83,6.67,2.44c1.86-0.27,3.67-0.89,5.41-1.78c1.74-0.89,3.13-2.16,4.2-3.68c1.4-1.99,2.85-4.11,4.18-6.3
	c1.33-2.2,2.52-4.41,3.57-6.65c3.04-6.7,5.46-13.55,7.28-20.55c1.82-7,3.22-14.13,4.27-21.3c0.5-3.39,0.89-6.79,1.12-10.16
	c0.25-3.38-0.01-6.74-0.68-10.01c-1.01-4.97-2.52-9.78-4.64-14.3c-2.11-4.52-5.07-8.69-8.85-12.53c0.67-0.33,1.17-0.57,1.51-0.73
	c0.33-0.16,0.76-0.33,1.31-0.52c10.69-4.41,20.23-10.31,28.63-17.73c3.2-2.81,6.33-5.72,9.4-8.73c1.66-1.63,3.32-3.22,4.98-4.82
	c-1.79,6.03-3.28,12.08-4.37,18.16c-1.22,6.81-1.47,13.68-0.75,20.59c0.58,5.58,2.02,9.7,4.32,12.33c2.3,2.63,5.67,4.44,10.09,5.43
	c3.5,0.79,6.78,0.64,9.86-0.47c3.07-1.11,6.08-2.71,9.01-4.81c4.27-3.14,8.3-6.56,12.09-10.26c3.79-3.69,7.38-7.61,10.67-11.73
	c3.72-4.66,7.27-9.43,10.65-14.22c1.66-2.34,3.35-4.75,5.02-7.13c0.1,1.01,0.13,2.06,0.28,3.05c0.7,4.72,2.25,9.39,4.33,13.91
	c1.53,3.32,3.63,5.91,6.39,7.55c2.76,1.64,5.69,2.64,8.78,2.99c3.09,0.35,6.1,0.12,9.05-0.72c2.94-0.84,5.41-2.11,7.42-3.83
	c6.53-5.84,12.03-12.42,16.55-19.53c4.56-7.17,9.17-14.36,13.61-21.52c4.44-7.15,8.91-14.3,13.41-21.42
	c0.64-0.91,0.96-1.36,1.6-2.26c0.13,0,0.23,0.03,0.3,0.09c0.07,0.07,0.18,0.09,0.31,0.09c-0.13,3.39-0.2,5.08-0.34,8.47
	c-0.61,7.26-1.23,14.5-1.84,21.69c-0.62,7.2-1.18,14.48-1.84,21.69c-0.23,2.55-0.77,4.93-1.56,7.1c-0.79,2.17-2.12,4.3-3.98,6.38
	c-5.31,5.84-10.36,11.88-15.14,18.13c-4.79,6.25-9.08,12.88-12.92,19.73c-4.18,7.44-8.21,15.02-11.9,22.65
	c-3.7,7.65-6.72,15.64-9.07,23.96c-1.05,3.69-1.96,7.39-2.73,11.13c-0.78,3.74-0.88,7.53-0.32,11.39c0.56,3.85,1.78,6.34,3.68,7.43
	c1.89,1.1,4.5,1.42,7.85,0.97c3.49-0.46,6.67-1.5,9.54-3.12c2.87-1.63,5.5-3.77,7.9-6.43c5.06-5.21,9.45-10.77,13.16-16.7
	c3.7-5.91,7.07-12.19,10.12-18.71c2.87-6.14,5.4-12.41,7.5-18.79c2.09-6.38,3.89-12.9,5.28-19.49c1.31-6.17,2.51-12.42,3.68-18.62
	c1.15-6.2,2.37-12.56,3.27-18.81c0.42-2.91,0.96-5.66,1.75-8.1c1.76-5.43,8.1-9.3,12.41-12.64c5.52-4.27,11.27-8.27,17.42-11.6
	c12.16-6.6,26.02-10.32,39.79-7.18c10.49,2.39,19.78,8.68,24.19,18.74c4.27,9.75,3.66,21.36-0.32,31.09
	c-4.21,10.29-12.57,18.5-21.96,24.17c-0.04,0.02-0.08,0.04-0.12,0.07c-1.66-6.41-4.86-12.37-9.72-16.97
	c-9.51-9-25.85-12.52-37.76-6.68c-5.97,2.92-10.83,8.47-12.71,14.87c-2,6.79,0.64,15.44,5.41,20.55
	c10.74,11.51,29.08,7.64,42.41,3.1c1.77-0.6,3.52-1.27,5.25-1.98c-0.05,0.75-0.05,1.5-0.15,2.24c-1.74,12.87-12.91,23.69-23.72,27.2
	c-11.29,3.67-5.68,20.55,7.57,13.52c12.13-6.44,20.35-21.74,23.61-35.32c0.9-3.76,1.22-7.68,1.07-11.6
	c7.69-4.16,14.72-9.55,20.24-16.33C680.67,707.42,685.42,694.11,684.19,680.59z M435.03,655.92c0.57-1.94,1.54-3.83,2.26-5.72
	c0.72-1.87,1.54-3.78,2.47-5.73c2.11-4.59,4.49-8.97,7.15-13.13c2.64-4.16,5.7-8.27,9.16-11.85c2.8-2.89,6-5.37,9.19-7.3
	c2.78-1.69,4.71-0.81,5.45,2.43c0.6,2.58,0.54,5.19-0.04,7.65c-0.58,2.45-1.61,4.87-3.07,7.26c-0.79,1.26-1.59,2.46-2.38,3.59
	c-0.8,1.13-1.73,2.27-2.79,3.42c-3.73,3.76-7.63,7.2-11.69,10.32c-2.52,1.94-5.13,3.77-7.8,5.5c-2.53,1.64-5.14,3.54-8.1,4.26
	C434.9,656.38,434.96,656.15,435.03,655.92z M369.42,654.92c0-0.4,0.12-0.82,0.39-1.24c4.43-15.01,10.03-29.52,16.77-43.52
	c6.72-13.99,14.47-27.66,23.22-41c3.05-4.68,6.37-9.14,9.96-13.39c3.59-4.25,7.58-8.08,11.78-11.51c3.19-2.61,6.93-5.04,11.21-7.11
	c1.87-0.81,3.15-0.97,3.83-0.49c0.67,0.48,1.26,1.68,1.63,3.5c0.75,3.62,0.69,7.36-0.01,10.97c-0.71,3.61-1.72,7.21-3.04,10.8
	c-2.88,8.4-6.54,16.4-10.98,23.99c-4.44,7.59-9.29,15.08-14.62,22.3c-6.3,8.55-13.18,16.57-20.43,24.03
	c-7.26,7.45-15.28,14.31-24.08,20.57c-2.4,1.5-3.6,2.24-6.01,3.74C369.29,655.87,369.42,655.32,369.42,654.92z M376.13,716.14
	c1.78,4.55,2.77,9.44,2.73,14.46c-0.03,4.24-0.4,8.56-0.9,12.76c-0.5,4.2-1.14,8.43-1.91,12.64c-1.15,6.26-2.65,12.44-4.48,18.51
	c-1.84,6.06-4.27,12.05-7.3,17.94c-0.4,0.84-0.83,1.65-1.29,2.43c-0.46,0.78-1.03,1.54-1.49,2.24c-0.41,0.64-0.8,1.08-1.2,1.11
	c-0.4,0.04-0.74-0.27-1.01-0.92c-0.69-1.41-1.3-2.74-1.84-3.96c-0.54-1.23-0.96-2.57-1.24-4.02c-1.11-5.54-1.87-11.18-2.24-16.92
	c-0.38-5.74-0.55-11.52-0.44-17.27c0.17-8.98,0.77-17.98,1.7-26.92c0.93-8.94,2.11-17.9,3.51-26.88c0.12-1.08,0.39-1.74,0.79-1.98
	c0.4-0.24,1.19-0.54,2.21-0.69c1.99-0.3,3.76,0.18,4.83,1.09c1.08,0.92,2.09,2.07,3.05,3.46
	C372.17,707.29,374.36,711.6,376.13,716.14z M558.58,711.96c-0.39,2.23-0.77,4.49-1.15,6.79c-1.43,7.3-3.07,14.47-4.96,21.53
	c-1.9,7.05-4.27,14.1-7.18,21.03c-2.86,6.81-6.14,13.48-9.7,19.96c-2.28,4.14-4.87,8.1-7.73,11.86c-2.67,3.51-5.49,7.13-8.96,9.86
	c-0.15,0.12-0.31,0.24-0.5,0.27c-2.84,0.46-0.89-14.46-0.67-15.84c1.02-6.5,2.65-12.72,4.89-18.68c2.24-5.95,4.8-11.89,7.71-17.8
	c4.35-9.22,9.29-18.17,14.83-26.74c4.69-7.25,10-13.97,15.15-20.87C559.91,706.21,559.09,709.05,558.58,711.96z M635.69,732.17
	c-6.19,2.08-12.77,3.82-19.35,3.58c-5.39-0.2-9.73-2.18-12.07-6.56c-2.16-4.06-2.73-9.32-0.09-13.78c4.96-8.39,15.9-9.79,24.72-5.39
	c7.72,3.85,12.4,11.17,14.06,19.27C640.59,730.36,638.17,731.34,635.69,732.17z"/>
</svg>
